<svg width="20" height="20" viewBox="0 0 20 20" fill="none" xmlns="http://www.w3.org/2000/svg">
<g id="cloudbot">
<path id="Subtract" fill-rule="evenodd" clip-rule="evenodd" d="M10 17.8571C4.5 17.8571 0 13.9821 0 9.10712C0 4.23212 4.5 0.357117 10 0.357117C15.5 0.357117 20 4.23212 20 9.10712C20 11.3571 19 13.3571 17.5 14.8571V18.1906C17.5 19.2162 16.4514 19.9077 15.5087 19.5037L11.375 17.7321C11 17.8571 10.5 17.8571 10 17.8571H10ZM10 4.28569C11.8034 4.28569 13.2653 5.82069 13.2653 7.71426C14.6178 7.71426 15.7143 8.86552 15.7143 10.2857C15.7143 11.7059 14.6178 12.8571 13.2653 12.8571H6.73469V12.8267C5.35007 12.6188 4.28571 11.3685 4.28571 9.85712C4.28571 8.31008 5.40099 7.03656 6.83335 6.87454C7.19004 5.38694 8.47253 4.28569 10 4.28569Z" fill="white"/>
</g>
</svg>
