<svg width="20" height="20" viewBox="0 0 20 20" fill="none" xmlns="http://www.w3.org/2000/svg">
<g id="dropped-frames">
<path id="Subtract" fill-rule="evenodd" clip-rule="evenodd" d="M14.2857 5.71429H18.5714C19.3604 5.71429 20 6.35388 20 7.14286V18.5714C20 19.3604 19.3604 20 18.5714 20H7.14286C6.35388 20 5.71429 19.3604 5.71429 18.5714V14.2857H1.42857C0.639594 14.2857 0 13.6461 0 12.8571V1.42857C0 0.639593 0.639593 0 1.42857 0H12.8571C13.6461 0 14.2857 0.639593 14.2857 1.42857V5.71429ZM2.85714 2.85714V11.4286H11.4286V2.85714H2.85714ZM14.2857 8.57143H17.1429V17.1429H8.57143V14.2857H12.8571C13.6461 14.2857 14.2857 13.6461 14.2857 12.8571V8.57143Z" fill="white"/>
</g>
</svg>
