<svg width="20" height="20" viewBox="0 0 20 20" fill="none" xmlns="http://www.w3.org/2000/svg">
<path id="multistream" fill-rule="evenodd" clip-rule="evenodd" d="M8.14286 0C7.59057 0 7.14286 0.447716 7.14286 1V4.71429C7.14286 5.26657 7.59057 5.71429 8.14286 5.71429H9V11.4286H7.1285L5.71429 10.0144V6.71429C5.71429 6.162 5.26657 5.71429 4.71428 5.71429H1C0.447715 5.71429 0 6.162 0 6.71429V10.4286C0 10.9809 0.447716 11.4286 1 11.4286H4.30007L5.71429 12.8428V19C5.71429 19.5523 6.162 20 6.71428 20H13.2857C13.838 20 14.2857 19.5523 14.2857 19V12.8428L15.6999 11.4286H19C19.5523 11.4286 20 10.9809 20 10.4286V6.71429C20 6.162 19.5523 5.71429 19 5.71429H15.2857C14.7334 5.71429 14.2857 6.162 14.2857 6.71429V10.0144L12.8715 11.4286H11V5.71429H11.8571C12.4094 5.71429 12.8571 5.26657 12.8571 4.71428V1C12.8571 0.447715 12.4094 0 11.8571 0H8.14286ZM8.57143 14.5357C8.57143 14.3976 8.68336 14.2857 8.82143 14.2857H11.1786C11.3166 14.2857 11.4286 14.3976 11.4286 14.5357V16.8929C11.4286 17.0309 11.3166 17.1429 11.1786 17.1429H8.82143C8.68336 17.1429 8.57143 17.0309 8.57143 16.8929V14.5357Z" fill="white"/>
</svg>
