<svg width="20" height="20" viewBox="0 0 20 20" fill="none" xmlns="http://www.w3.org/2000/svg">
<g id="notifications">
<path id="notifications_2" fill-rule="evenodd" clip-rule="evenodd" d="M18.125 11.8681H18.75C19.5 11.8681 20 12.3516 20 13.0769C20 13.8022 19.5 14.2857 18.75 14.2857H1.25C0.5 14.2857 0 13.8022 0 13.0769C0 12.3516 0.5 11.8681 1.25 11.8681H1.875C4.28571 11.8681 4.28571 9.81319 4.28571 8.24176V6.04396C4.28571 2.65934 6.5 0 10 0C13.5 0 15.7143 2.65934 15.7143 6.04396V8.24176C15.7143 9.81319 15.7143 11.8681 18.125 11.8681ZM10 20C8.42858 20 7.14287 18.7143 7.14287 17.1429H12.8572C12.8572 18.7143 11.5714 20 10 20Z" fill="white"/>
</g>
</svg>
