<svg width="20" height="20" viewBox="0 0 20 20" fill="none" xmlns="http://www.w3.org/2000/svg">
<g id="smile">
<path id="Fill 75" fill-rule="evenodd" clip-rule="evenodd" d="M10 0C4.5 0 0 4.5 0 10C0 15.5 4.5 20 10 20C15.5 20 20 15.5 20 10C20 4.5 15.5 0 10 0ZM12.8571 5.71429C13.7143 5.71429 14.2857 6.28571 14.2857 7.14286C14.2857 8 13.7143 8.57143 12.8571 8.57143C12 8.57143 11.4286 8 11.4286 7.14286C11.4286 6.28571 12 5.71429 12.8571 5.71429ZM7.14286 5.71429C8 5.71429 8.57143 6.28571 8.57143 7.14286C8.57143 8 8 8.57143 7.14286 8.57143C6.28571 8.57143 5.71429 8 5.71429 7.14286C5.71429 6.28571 6.28571 5.71429 7.14286 5.71429ZM5.75275 11.9299C6.26496 11.6336 6.92038 11.8086 7.21668 12.3208C7.77406 13.2844 8.81321 13.9288 10.0016 13.9288C11.19 13.9288 12.2291 13.2844 12.7865 12.3208C13.0828 11.8086 13.7382 11.6336 14.2505 11.9299C14.7627 12.2262 14.9377 12.8816 14.6414 13.3938C13.7167 14.9923 11.9859 16.0716 10.0016 16.0716C8.01735 16.0716 6.28646 14.9923 5.36181 13.3938C5.06551 12.8816 5.24054 12.2262 5.75275 11.9299Z" fill="white"/>
</g>
</svg>
