<svg width="16" height="17" viewBox="0 0 16 17" fill="none" xmlns="http://www.w3.org/2000/svg">
<g id="streamlabs">
<g id="streamlabs-logo">
<path fill-rule="evenodd" clip-rule="evenodd" d="M3.48537 9.73207C3.48537 7.97986 3.48537 7.10375 3.82638 6.43449C4.12633 5.8458 4.60496 5.36718 5.19365 5.06722C5.86291 4.72622 6.73901 4.72622 8.49122 4.72622H10.9941C12.7464 4.72622 13.6225 4.72622 14.2917 5.06722C14.8804 5.36718 15.359 5.8458 15.659 6.43449C16 7.10375 16 7.97986 16 9.73207V10.4472C16 12.1994 16 13.0755 15.659 13.7448C15.359 14.3335 14.8804 14.8121 14.2917 15.112C13.6225 15.453 12.7464 15.453 10.9941 15.453H6.34586C5.3446 15.453 4.84396 15.453 4.46153 15.2582C4.12513 15.0868 3.85164 14.8133 3.68023 14.4769C3.48537 14.0945 3.48537 13.5938 3.48537 12.5926V9.73207ZM7.95488 10.0896C7.95488 9.59594 8.3551 9.19573 8.84878 9.19573C9.34247 9.19573 9.74269 9.59594 9.74269 10.0896V11.8774C9.74269 12.3711 9.34247 12.7713 8.84878 12.7713C8.3551 12.7713 7.95488 12.3711 7.95488 11.8774V10.0896ZM12.4244 9.19573C11.9307 9.19573 11.5305 9.59594 11.5305 10.0896V11.8774C11.5305 12.3711 11.9307 12.7713 12.4244 12.7713C12.9181 12.7713 13.3183 12.3711 13.3183 11.8774V10.0896C13.3183 9.59594 12.9181 9.19573 12.4244 9.19573Z" fill="#09161D"/>
<path fill-rule="evenodd" clip-rule="evenodd" d="M6.6072 2.02453C6.66812 2.51444 6.32036 2.96098 5.83044 3.02191C5.56038 3.05549 5.34342 3.10118 5.15137 3.16103C3.6088 3.64171 2.40087 4.84964 1.92018 6.39221C1.86034 6.58426 1.81465 6.80123 1.78106 7.07129C1.72014 7.5612 1.2736 7.90897 0.783681 7.84804C0.293767 7.78712 -0.0539984 7.34057 0.00692629 6.85066C0.050682 6.49881 0.115441 6.17447 0.213329 5.86034C0.868809 3.75683 2.51598 2.10965 4.61949 1.45417C4.93363 1.35629 5.25796 1.29153 5.60981 1.24777C6.09973 1.18685 6.54627 1.53461 6.6072 2.02453Z" fill="#09161D"/>
</g>
</g>
</svg>
