<svg width="38" height="33" viewBox="0 0 38 33" fill="none" xmlns="http://www.w3.org/2000/svg">
<g id="Streamlabs Logo">
<g id="streamlabs-logo">
<path fill-rule="evenodd" clip-rule="evenodd" d="M8.09286 19.7162C8.09286 15.6476 8.09286 13.6134 8.88465 12.0594C9.58113 10.6925 10.6925 9.58113 12.0594 8.88465C13.6134 8.09286 15.6476 8.09286 19.7162 8.09286H25.5279C29.5964 8.09286 31.6307 8.09286 33.1847 8.88465C34.5516 9.58113 35.6629 10.6925 36.3594 12.0594C37.1512 13.6134 37.1512 15.6476 37.1512 19.7162V21.3767C37.1512 25.4452 37.1512 27.4795 36.3594 29.0335C35.6629 30.4004 34.5516 31.5117 33.1847 32.2082C31.6307 33 29.5964 33 25.5279 33H14.7348C12.4099 33 11.2474 33 10.3595 32.5475C9.57835 32.1496 8.9433 31.5145 8.54531 30.7334C8.09286 29.8454 8.09286 28.683 8.09286 26.3581V19.7162ZM18.4708 20.5464C18.4708 19.4001 19.4001 18.4708 20.5464 18.4708C21.6928 18.4708 22.622 19.4001 22.622 20.5464V24.6976C22.622 25.8439 21.6928 26.7732 20.5464 26.7732C19.4001 26.7732 18.4708 25.8439 18.4708 24.6976V20.5464ZM28.8488 18.4708C27.7025 18.4708 26.7732 19.4001 26.7732 20.5464V24.6976C26.7732 25.8439 27.7025 26.7732 28.8488 26.7732C29.9951 26.7732 30.9244 25.8439 30.9244 24.6976V20.5464C30.9244 19.4001 29.9951 18.4708 28.8488 18.4708Z" fill="white"/>
<path fill-rule="evenodd" clip-rule="evenodd" d="M15.3416 1.81967C15.483 2.95723 14.6755 3.99408 13.538 4.13554C12.9109 4.21352 12.4071 4.31961 11.9612 4.45857C8.37944 5.57469 5.57469 8.37944 4.45857 11.9612C4.31961 12.4071 4.21352 12.9109 4.13554 13.538C3.99408 14.6755 2.95723 15.483 1.81967 15.3416C0.682112 15.2001 -0.125382 14.1633 0.0160825 13.0257C0.117681 12.2087 0.268048 11.4556 0.49534 10.7262C2.01733 5.84199 5.84199 2.01733 10.7262 0.495339C11.4556 0.268048 12.2087 0.117681 13.0257 0.0160825C14.1633 -0.125382 15.2001 0.682112 15.3416 1.81967Z" fill="white"/>
</g>
</g>
</svg>
