<svg width="20" height="20" viewBox="0 0 20 20" fill="none" xmlns="http://www.w3.org/2000/svg">
<g id="team-2">
<path id="team-2_2" fill-rule="evenodd" clip-rule="evenodd" d="M2.85714 3.57143C2.85714 5.53571 4.46429 7.14286 6.42857 7.14286C8.39286 7.14286 10 5.53571 10 3.57143C10 1.60714 8.39286 0 6.42857 0C4.46429 0 2.85714 1.60714 2.85714 3.57143ZM7.51221 12.8572C7.27312 12.1862 7.14286 11.4647 7.14286 10.7143C7.14286 10.4576 7.15803 10.2042 7.18767 9.95514C6.93865 9.98479 6.68527 10 6.42857 10C4.65349 10 3.04042 9.27091 1.87413 8.09736C0.722133 8.73359 0 9.75666 0 11.0205V11.4286C0 12.2176 0.639648 12.8572 1.42857 12.8572H7.51221ZM9.01699 15.2402C7.86499 15.8764 7.14286 16.8995 7.14286 18.1633V18.5715C7.14286 19.3605 7.78251 20 8.57143 20H18.5714C19.3604 20 20 19.3605 20 18.5715V18.1633C20 16.8995 19.2779 15.8764 18.1259 15.2402C16.9596 16.4138 15.3465 17.1429 13.5714 17.1429C11.7964 17.1429 10.1833 16.4138 9.01699 15.2402ZM13.5714 14.2857C11.6071 14.2857 10 12.6786 10 10.7143C10 8.75 11.6071 7.14286 13.5714 7.14286C15.5357 7.14286 17.1429 8.75 17.1429 10.7143C17.1429 12.6786 15.5357 14.2857 13.5714 14.2857Z" fill="white"/>
</g>
</svg>
