<svg width="20" height="14" viewBox="0 0 20 14" fill="none" xmlns="http://www.w3.org/2000/svg">
<path id="Vector" d="M11.1304 8.4382C11.0217 6.95993 10.913 5.04689 10.7609 4.06863C10.6522 4.74254 10.5652 5.85124 10.5 6.7208C10.2609 9.8295 10.1304 10.9165 9.45652 10.9165C8.76087 10.9165 8.65217 9.85124 8.5 8.39472C8.43478 7.7208 8.32609 6.61211 8.13043 6.37298C8 6.50341 7.91304 7.15559 7.86956 7.52515C7.76087 8.39472 7.63043 9.39472 6.84783 9.39472C6.06522 9.39472 5.91304 8.50341 5.80435 7.85124C5.76087 7.56863 5.67391 7.00341 5.54348 7.00341C5.3913 7.00341 5.30435 7.2208 5.17391 7.67733C5.04348 8.11211 4.84783 8.74254 4.23913 8.74254C3.65217 8.74254 3.3913 8.28602 3.21739 7.98167C3.08696 7.76428 3.02174 7.65559 2.93478 7.65559C2.76087 7.65559 2.69565 7.69906 2.56522 7.78602C2.3913 7.91646 2.15217 8.09037 1.63043 8.09037H0.326087C0.152174 8.09037 0 7.9382 0 7.76428C0 7.59037 0.152174 7.4382 0.326087 7.4382H1.63043C1.93478 7.4382 2.04348 7.37298 2.19565 7.26428C2.34783 7.15559 2.54348 7.00341 2.93478 7.00341C3.41304 7.00341 3.63043 7.37298 3.78261 7.65559C3.95652 7.95994 4.04348 8.09037 4.23913 8.09037C4.36957 8.09037 4.45652 7.74254 4.54348 7.48167C4.67391 7.00341 4.86956 6.35124 5.54348 6.35124C6.21739 6.35124 6.34783 7.11211 6.45652 7.74254C6.54348 8.30776 6.63043 8.74254 6.84783 8.74254C7.06522 8.74254 7.15217 7.89472 7.21739 7.4382C7.32609 6.59037 7.43478 5.69907 8.15217 5.69907C8.8913 5.69907 9 6.85124 9.15217 8.3295C9.21739 8.89472 9.30435 9.76428 9.43478 10.1338C9.63043 9.54689 9.76087 7.85124 9.84783 6.67733C10.0435 3.85124 10.1522 2.87298 10.7609 2.87298C11.3478 2.87298 11.4783 3.59037 11.7826 8.39472C11.8478 9.63385 11.9348 11.1991 12.0652 12.1991C12.1957 10.9599 12.3043 8.80776 12.3913 7.11211C12.6957 0.807761 12.8261 0.264282 13.3913 0.264282C13.9783 0.264282 14.087 1.15559 14.3043 4.98167C14.3913 6.52515 14.5217 8.78602 14.7391 9.48168C14.8696 9.19907 14.9565 8.50341 15.0217 8.11211C15.1739 7.04689 15.3043 6.13385 15.9783 6.13385C16.6304 6.13385 16.8261 6.8295 17 7.39472C17.0435 7.61211 17.1739 8.04689 17.2826 8.09037C17.4783 8.09037 17.5217 8.02515 17.6304 7.89472C17.7826 7.7208 18 7.4382 18.587 7.4382H19.6739C19.8478 7.4382 20 7.59037 20 7.76428C20 7.9382 19.8478 8.09037 19.6739 8.09037H18.587C18.3043 8.09037 18.2391 8.17733 18.1087 8.3295C17.9783 8.48167 17.7609 8.74254 17.2826 8.74254C16.6957 8.74254 16.5217 8.11211 16.3696 7.56863C16.2826 7.26428 16.1522 6.8295 16 6.78602C15.8478 6.95993 15.7391 7.74254 15.6739 8.2208C15.5217 9.26428 15.3696 10.2643 14.6739 10.2643C14.0217 10.2643 13.8913 9.22081 13.6522 5.04689C13.587 3.9382 13.5 2.54689 13.3913 1.67733C13.2174 2.9382 13.1087 5.30776 13.0217 7.15559C12.7391 13.2643 12.6087 13.7425 12.0652 13.7425C11.5217 13.7425 11.3913 13.0469 11.1304 8.4382Z" fill="white"/>
</svg>
